<svg width="630" height="568" viewBox="0 0 630 568" xmlns="http://www.w3.org/2000/svg"><title>Shape Copy</title><path d="M201.796 49.075c3.19-8.386 10.71-16.835 16.63-22.915-3.965 10.64-11.345 17.828-14.805 28.188-1.666 4.99 1.378 9.585.407 15.412l-6.49 13.992 21.092-14.6 13.18-3.854c4.41-3.068 5.82-9.385 11.156-11.56-2.906 4.868-6.017 9.533-9.126 14.197-3.504 2.848-9.12 2.34-13.386 4.664-12.094 6.59-48.323 31.225-28.19 48.263 12.173 10.302 39.65-5.775 46.85-14.804 6.037-7.572 9.51-17.47 16.832-23.727l24.946-15.818C274.2 72.53 267.1 77.94 260.002 83.347c-7.515 6.544-12.443 17.61-17.644 26.363 8.72-2.84 17.442-5.68 26.162-8.518 4.26-4.258 8.52-8.517 12.777-12.775-3.206 5.925-6.558 12.08-12.168 15.614-9.83 6.196-74.517 24.208-59.83 44.21 5.397 7.35 27.892.53 35.897-1.014 8.788-.88 17.578-1.758 26.365-2.637l14.603-10.75c10.788-7.126 33.008-5.362 42.59 1.42-8.68.373-19.766-4.175-31.03-2.027-10.622 2.026-15.046 11.005-23.73 15.007-7.502 1.35-15.008 2.704-22.51 4.055l34.07 20.685 12.778 5.88c-20.022 1.428-33.153-19.53-50.5-22.51l-24.945 4.26c-6.222 1.263-12.69 3.27-13.994 9.125-4.986 22.41 57.976 27.17 61.654 51.104l-6.084-7.708c-2.38-1.928-26.182-15.024-29.205-13.384 4.662 5.46 6.077 11.818 9.33 17.237l8.517 8.923c-16.078-7.738-18.534-32.647-38.33-32.243 3.116 15.69.62 31.16-1.218 49.075-.272 7.3-.542 14.6-.812 21.9-1.555-8.92-2.705-17.643-3.854-26.362-1.604-12.73 9.285-42.478-3.65-48.872-26.926-13.31-44.508 39.022-51.514 54.55-15.818 35.058-87.02 55.033-80.718 106.465 1.76 14.374 8.3 22.76 17.644 29.406 28.32 20.14 53.822 12.004 96.943 16.63 10.815.2 21.633.404 32.45.607 11.608-1.352 23.42-5.797 36.504-3.65 24.188 3.968 38.06 22.085 46.647 41.775 3.894 8.928 5.38 17.215 12.372 22.915 21.122 17.222 42.267-9.667 61.857-15.412l28.19-4.46c8.008-4.257 49.31-59.595 54.555-69.76 2.54-4.924 2.234-12.642 4.057-18.454l14.602-30.013c1.62-2.892 23.094-50.257 25.757-34.07l-32.45 60.838c-2.217 5.153-1.59 12.654-4.055 18.455 23.426-.397 25.273-27.548 52.528-24.335 46.847 5.524 67.885 29.917 90.25 59.62 3.475 4.615 21.572 24.434 18.862 29.202-6.65 1.966-34.316-40.796-40.157-47.858-11.317-13.685-52.554-41.23-81.124-33.46-8.83 2.4-12.81 12.828-21.295 16.83-19.354 9.132-26.382 9.41-37.318 27.378 12.27-6.21 23.608 1.42 37.925-1.42 8.933-1.772 15.833-9.264 19.876-10.14 3.34-.722 3.938 2.136 3.853 4.462-6.765 7.28-21.82 15.716-37.114 12.98-5.242-.94-10.223-4.88-15.82-3.246-15.622 4.558-35.1 30.05-43.4 42.992 12.847.124 58.72-26.163 63.885-20.888l.203 2.636c-2.015 2.363-5.168 1.735-8.316 3.042l-12.98 8.112c-4.8 1.284-9.6 2.57-14.4 3.853 5.145 9.783 5.686 16.357 19.065 18.048 9.924-1.536 8.487-15.463 24.134-6.49 2.448 1.405 4.138 1.398 4.46 5.07-.607.744-1.216 1.488-1.824 2.23-4.123-1.283-8.248-2.567-12.37-3.852-3.11 2.908-6.22 5.815-9.33 8.72-8.638 3.52-22.48-5.595-25.96-10.138l-4.056-10.748-12.372 5.475c-5.948.675-11.9 1.35-17.847 2.027 5.147 3.95 11.47 6.64 14.805 12.37 3.225 5.542 3.824 12.55 7.707 17.237 2.46 2.97 9.345 3.59 10.343 6.49-6.068 20.454-22.824-18.673-24.134-20.888-5.205-4.46-10.006-7.91-14.805-11.356-13.18-5.94-36.408 5.05-44.212 10.95 27.456.735 22.966 43.408 40.36 58.81 1.647 1.46 5.166 5.512 1.216 7.3-14.527 6.577-24.18-50.58-32.652-56.984-10.963-8.287-24.12 3.554-35.898 2.028-8.305-1.076-12.93-5.23-18.658-8.72 6.205 34.977 3.55 81.363-12.17 104.64l-3.04.406c-3.02-2.444 9.755-38.178 11.154-48.873 4.996-38.204-4.293-77.727-20.28-99.164-6.268-8.403-16.635-16.844-28.395-19.468-14.473-3.23-46.722 2.852-61.857 4.867l-25.554-.608c-36.274-3.995-67.435-4.75-88.83-22.713-58.348-48.99 50.133-114.017 57.395-156.553l-3.45-20.28c-2.253-9.6-4.97-19.086-11.56-24.334-20.103-16.013-44.612 32.36-54.758 40.558-3.9 3.152-24.484 12.437-30.016 11.966l23.324-11.56c7.852-4.693 14.863-15.905 18.86-24.334-9.753 4.51-21.566 5.692-30.015 11.153-.946.61-1.893 1.217-2.84 1.826 1.372-10.438 22.948-12.623 31.233-17.642l8.924-9.53c-16.45-3.834-23.317 6.85-32.45 9.733l-16.427-1.013-12.17-1.217 25.96-1.014 14.4-9.734 28.8-4.056c5.07-3.852 10.14-7.706 15.21-11.56-10.2-10.97-17.204-.656-32.247-3.04-12.884-2.043-21.19-9.455-32.044-13.588-6.327-2.41-11.89.463-19.47-.608C19.408 145.435 4.46 136.06 0 128.974c9.666 4.664 19.335 9.33 29.002 13.993 5.842 2.024 13.21-1.936 19.672-.405 19.51 4.62 26.873 18.233 50.5 8.314 4.058-1.704 7.893-1.91 8.72-6.895-14.33-2.365-28.664-4.73-42.995-7.097l-40.36-15.817c8.382 1.757 16.564 4.123 24.743 6.49 12.7 3.826 27.525 6.59 43.4 7.502-7.3-6.103-10.345-14.026-19.874-18.25-8.248-2.3-16.497-4.598-24.744-6.896l13.385 1.014c10.483 1.253 16.765 2.748 23.325 7.503 10.312 7.477 16.38 21.718 37.317 19.467 5.754-8.6-.346-19.86-6.085-24.74l-21.092-6.692c-16.134-6.56-32.62-14.172-45.024-24.538 6.76 3.244 13.32 6.693 19.877 10.14l39.953 13.18c-2.944-5.455-4.377-11.604-8.924-15.41L87.006 79.29c-5.88-9.26-11.764-18.52-17.645-27.78 9.262 12.93 20.216 25.98 34.073 34.067-.805-12.487-7.388-18.336-13.588-25.348-.81-.948-1.623-1.894-2.434-2.84 27.31 2.207 13.803 50.665 41.577 53.74 6.527.72 11.917-.62 15.617-3.246-5.543-7.3-11.088-14.6-16.63-21.9l-17.24-27.175C100.78 46.935 84.94 40.577 71.186 32.445c30.603 7.147 44.448 26.122 60.032 48.67l16.428 20.28c10.186-28.45-16.78-42.59-28.8-57.39-5.204-6.41-8.68-14.166-12.168-22.307l-5.273-12.98c6.16 13.61 17.104 33.908 29.61 40.558-5.68-11.425.848-23.822 2.23-35.69-.066-4.26-.134-8.52-.202-12.777 1.217 4.665 2.028 9.127 2.84 13.588-1.085 8.428-5 18.31-3.043 27.782 2.815 13.63 16.05 25.192 22.107 37.11 2.057 4.05 3.773 9.295 3.448 15.413-.27 2.028-.54 4.056-.812 6.084 1 2.637 8.044 6.288 11.56 6.49 8.582-10.43 21.37-21.1 26.77-34.273 2.615-6.374.964-38.768-.607-50.292-.978-7.176-7.52-20.227-7.3-22.712 13.46 10.694 6.703 31.387 13.79 49.075z" fill="#FFF" fill-rule="evenodd"/></svg>