<svg width="506" height="226" viewBox="0 0 506 226" xmlns="http://www.w3.org/2000/svg" xmlns:xlink="http://www.w3.org/1999/xlink"><title>logo</title><defs><path id="a" d="M118 .51l102.19 55.425v110.85L118 222.207 15.81 166.784V55.934z"/><path id="b" d="M117-7.883L219.19 47.54v110.85L117 213.814 14.81 158.39V47.54z"/></defs><g fill="none" fill-rule="evenodd"><path d="M245 153.65h19.25v-24.31h13.42c15.29 0 25.63-11.44 25.63-27.28 0-15.84-10.34-27.06-25.63-27.06H245v78.65zm19.25-40.81V91.5h9.79c6.38 0 9.68 4.29 9.68 10.56 0 6.27-3.3 10.78-10.01 10.78h-9.46zm50.49 40.81h19.25V75h-19.25v78.65zm37.73 0h19.25v-36.63c0-4.95-.88-13.42-.88-13.42h.22s3.52 8.25 6.6 13.42l21.89 36.63h19.36V75h-19.25v36.74c0 4.95.88 13.42.88 13.42h-.22s-3.52-8.25-6.6-13.42L371.94 75h-19.47v78.65zm84.92 0h27.94c24.75 0 40.59-14.74 40.59-39.49S490.08 75 465.33 75h-27.94v78.65zm19.25-16.5V91.5h7.92c12.98 0 21.45 7.7 21.45 22.66 0 15.07-8.14 22.99-21.45 22.99h-7.92z" fill="#3F3F3F"/><g transform="translate(-14 6)"><use fill="#0064B2" xlink:href="#a"/><mask id="c" fill="#fff"><use xlink:href="#b"/></mask><use fill="#0078D0" xlink:href="#b"/><path d="M186.224-46.282c2.954-7.782 9.917-15.62 15.4-21.262-3.672 9.87-10.505 16.54-13.71 26.154-1.544 4.63 1.275 8.893.376 14.3l-6.01 12.982 19.533-13.547c4.068-1.19 8.14-2.383 12.207-3.575 4.083-2.847 5.39-8.708 10.33-10.725-2.692 4.516-5.572 8.844-8.45 13.17-3.246 2.644-8.447 2.173-12.397 4.33-11.2 6.113-44.75 28.97-26.106 44.78 11.273 9.558 36.717-5.358 43.385-13.736 5.59-7.026 8.806-16.21 15.588-22.015 7.7-4.89 15.4-9.784 23.1-14.676-6.196 5.58-12.77 10.6-19.344 15.616-6.96 6.072-11.523 16.34-16.34 24.46l24.228-7.902L259.847-9.78c-2.97 5.498-6.073 11.207-11.27 14.488-9.102 5.747-69.004 22.46-55.404 41.018 4.998 6.82 25.83.492 33.243-.94l24.416-2.447 13.522-9.973c9.99-6.614 30.568-4.977 39.44 1.317-8.038.345-18.303-3.875-28.735-1.882-9.837 1.88-13.933 10.21-21.975 13.924-6.948 1.254-13.898 2.51-20.847 3.763 10.517 6.395 21.036 12.794 31.553 19.19 3.944 1.82 7.89 3.638 11.833 5.457-18.542 1.324-30.702-18.12-46.765-20.885l-23.1 3.95c-5.763 1.173-11.754 3.036-12.96 8.468-4.618 20.794 53.688 25.21 57.094 47.415l-5.634-7.15c-2.204-1.79-24.246-13.94-27.045-12.418 4.318 5.065 5.628 10.965 8.64 15.993l7.888 8.28c-14.888-7.18-17.162-30.292-35.496-29.917 2.887 14.56.577 28.91-1.127 45.533l-.75 20.32c-1.44-8.277-2.505-16.37-3.57-24.46-1.485-11.812 8.6-39.412-3.38-45.345-24.935-12.35-41.216 36.207-47.704 50.615-14.648 32.528-80.585 51.06-74.75 98.782 1.63 13.335 7.686 21.116 16.34 27.282 26.226 18.687 49.842 11.137 89.774 15.428l30.05.564c10.75-1.254 21.69-5.378 33.806-3.386 22.4 3.682 35.246 20.49 43.197 38.76 3.606 8.284 4.983 15.973 11.457 21.26 19.56 15.98 39.14-8.968 57.283-14.298l26.105-4.14c7.417-3.95 45.665-55.294 50.522-64.725 2.352-4.57 2.068-11.73 3.756-17.123l13.523-27.846c1.5-2.683 21.386-46.63 23.852-31.61l-30.05 56.446c-2.055 4.78-1.474 11.74-3.757 17.122 21.695-.37 23.405-25.56 48.645-22.58 43.383 5.127 62.865 27.76 83.576 55.32 3.22 4.28 19.978 22.67 17.468 27.094-6.16 1.823-31.778-37.852-37.187-44.405-10.48-12.696-48.667-38.254-75.124-31.045-8.176 2.228-11.863 11.903-19.72 15.617-17.922 8.472-24.43 8.73-34.558 25.4 11.362-5.76 21.863 1.32 35.12-1.316 8.274-1.644 14.663-8.596 18.407-9.408 3.092-.67 3.646 1.982 3.568 4.14-6.265 6.755-20.208 14.58-34.37 12.042-4.854-.87-9.466-4.526-14.65-3.01-14.466 4.228-32.504 27.88-40.19 39.888 11.897.116 54.376-24.274 59.16-19.38l.188 2.446c-1.864 2.192-4.785 1.61-7.7 2.822-4.005 2.51-8.013 5.018-12.02 7.527-4.444 1.19-8.89 2.383-13.334 3.575 4.764 9.077 5.265 15.176 17.654 16.745 9.19-1.425 7.86-14.347 22.35-6.02 2.268 1.303 3.832 1.296 4.132 4.703l-1.69 2.07c-3.82-1.19-7.638-2.383-11.457-3.575l-8.64 8.092c-7.997 3.265-20.815-5.193-24.04-9.408-1.25-3.324-2.503-6.648-3.755-9.972l-11.457 5.08-16.527 1.882c4.766 3.663 10.62 6.16 13.71 11.477 2.986 5.143 3.54 11.646 7.137 15.994 2.278 2.756 8.654 3.33 9.578 6.02-5.618 18.98-21.135-17.324-22.348-19.38-4.82-4.138-9.266-7.337-13.71-10.535-12.206-5.514-33.717 4.685-40.944 10.16 25.426.68 21.268 40.273 37.375 54.564 1.526 1.354 4.785 5.114 1.127 6.774-13.453 6.102-22.394-46.93-30.238-52.872-10.152-7.69-22.335 3.297-33.243 1.882-7.692-1-11.975-4.854-17.28-8.09 5.747 32.45 3.288 75.49-11.268 97.087l-2.817.376c-2.796-2.266 9.034-35.42 10.33-45.344 4.626-35.447-3.976-72.118-18.782-92.008-5.803-7.796-15.403-15.63-26.294-18.063-13.404-2.996-43.268 2.647-57.283 4.516l-23.665-.564c-33.592-3.706-62.448-4.406-82.26-21.073-54.034-45.455 46.425-105.79 53.15-145.256-1.065-6.27-2.13-12.545-3.193-18.816-2.09-8.907-4.606-17.708-10.707-22.578-18.617-14.858-41.314 30.025-50.71 37.632-3.61 2.923-22.673 11.538-27.795 11.1l21.598-10.724c7.273-4.356 13.765-14.76 17.467-22.58-9.032 4.185-19.972 5.283-27.796 10.35-.877.564-1.753 1.13-2.63 1.693 1.27-9.685 21.25-11.713 28.923-16.37l8.264-8.843c-15.235-3.556-21.592 6.358-30.05 9.032-5.07-.314-10.142-.628-15.213-.94l-11.267-1.13 24.04-.94 13.334-9.032c8.89-1.254 17.78-2.51 26.67-3.763l14.085-10.725c-9.446-10.18-15.932-.61-29.862-2.822-11.93-1.895-19.623-8.773-29.674-12.607-5.86-2.235-11.01.43-18.03-.564C17.323 43.123 3.482 34.423-.65 27.85L26.21 40.835c5.41 1.878 12.233-1.797 18.218-.377 18.067 4.288 24.886 16.918 46.765 7.715 3.76-1.58 7.31-1.773 8.077-6.398L59.45 35.19c-12.456-4.893-24.917-9.786-37.374-14.677 7.762 1.63 15.34 3.826 22.913 6.02 11.76 3.552 25.49 6.117 40.19 6.963-6.76-5.664-9.58-13.015-18.404-16.934l-22.913-6.398c4.13.314 8.264.628 12.395.94 9.707 1.164 15.525 2.55 21.6 6.963 9.548 6.938 15.167 20.15 34.556 18.063 5.33-7.98-.32-18.427-5.634-22.955l-19.533-6.21C72.307.88 57.04-6.184 45.553-15.8c6.26 3.01 12.334 6.208 18.406 9.407l36.998 12.23C98.23.774 96.904-4.93 92.694-8.463c-4.257-3.26-8.515-6.523-12.77-9.784-5.447-8.592-10.895-17.186-16.34-25.778 8.575 12 18.72 24.106 31.55 31.61-.744-11.586-6.84-17.012-12.582-23.52l-2.254-2.633c25.29 2.048 12.78 47.01 38.502 49.86 6.044.672 11.035-.572 14.46-3.01l-15.4-20.32-15.963-25.213C92.677-48.27 78.01-54.168 65.273-61.71c28.34 6.63 41.16 24.235 55.593 45.156l15.212 18.816c9.433-26.396-15.537-39.516-26.67-53.248-4.82-5.946-8.038-13.143-11.268-20.697-1.627-4.014-3.255-8.03-4.883-12.042 5.705 12.63 15.84 31.46 27.42 37.63-5.26-10.6.786-22.102 2.067-33.115l-.188-11.853c1.127 4.327 1.878 8.467 2.63 12.606-1.005 7.82-4.63 16.988-2.818 25.777 2.606 12.647 14.864 23.374 20.472 34.433 1.904 3.756 3.493 8.623 3.192 14.3l-.75 5.644c.926 2.447 7.448 5.835 10.704 6.02 7.948-9.675 19.79-19.576 24.792-31.797 2.42-5.915.89-35.97-.564-46.663-.906-6.658-6.964-18.767-6.76-21.073 12.466 9.922 6.208 29.122 12.77 45.534z" fill="#F7C027" mask="url(#c)"/><path d="M118.5 122c8.56 0 10.5-6.94 10.5-15.5 0-8.56-1.94-15.5-10.5-15.5S104 97.94 104 106.5c0 8.56 5.94 15.5 14.5 15.5z" fill="#0078D0" mask="url(#c)"/></g></g></svg>