<?xml version="1.0" encoding="UTF-8" standalone="no"?>
<svg width="25px" height="25px" viewBox="0 0 25 25" version="1.1" xmlns="http://www.w3.org/2000/svg" xmlns:xlink="http://www.w3.org/1999/xlink" xmlns:sketch="http://www.bohemiancoding.com/sketch/ns">
    <!-- Generator: Sketch 3.4.1 (15681) - http://www.bohemiancoding.com/sketch -->
    <title>Group</title>
    <desc>Created with Sketch.</desc>
    <defs></defs>
    <g id="Home" stroke="none" stroke-width="1" fill="none" fill-rule="evenodd" sketch:type="MSPage">
        <g sketch:type="MSArtboardGroup" transform="translate(-742.000000, -647.000000)" id="Boxes">
            <g sketch:type="MSLayerGroup" transform="translate(161.000000, 629.000000)">
                <g id="Rectangle-86-+-Monday---Friday------+-Working-time:-3" transform="translate(556.000000, 0.000000)" sketch:type="MSShapeGroup">
                    <g id="Group" transform="translate(26.000000, 19.000000)">
                        <path d="M13.5002,9 L15.0002,9 L15.0002,13 L19.3412,9 L23.0002,9 L23.0002,0 L8.0002,0 L8.0002,4" id="Stroke-34" stroke="#B5E0FC" stroke-linejoin="round"></path>
                        <path d="M19.5001,4.5 L18.5001,4.5 L18.5001,5.5 L19.5001,5.5 L19.5001,4.5 Z" id="Fill-35" fill="#B5E0FC"></path>
                        <path d="M16.5001,4.5 L15.5001,4.5 L15.5001,5.5 L16.5001,5.5 L16.5001,4.5 Z" id="Fill-36" fill="#B5E0FC"></path>
                        <path d="M13.5001,4.5 L12.5001,4.5 L12.5001,5.5 L13.5001,5.5 L13.5001,4.5 Z" id="Fill-37" fill="#B5E0FC"></path>
                        <path d="M7.26,23 L15,23 L15,20.5 C15,20 12,18.5 9.5,17.5 L9.5,15.5 C9.5,15.5 10.42,15.15 10.42,13 C11.116,13 11.381,11 10.412,11 C10.412,10.789 11.158,9.692 10.861,8.5 C10.361,6.5 5.43,6.5 4.93,8.5 C2.825,8.07 4.5,10.712 4.5,11 C3.5,11 3.5,13 4.5,13 C4.5,15.15 5.5,15.5 5.5,15.5 L5.5,17.5 C3,18.5 0,20 0,20.5 L0,23 L7.26,23 L7.26,23 Z" id="Stroke-38" stroke="#B5E0FC" stroke-linejoin="round"></path>
                    </g>
                </g>
            </g>
        </g>
    </g>
</svg>