<?xml version="1.0" encoding="UTF-8" standalone="no"?>
<svg width="24px" height="24px" viewBox="0 0 24 24" version="1.1" xmlns="http://www.w3.org/2000/svg" xmlns:xlink="http://www.w3.org/1999/xlink" xmlns:sketch="http://www.bohemiancoding.com/sketch/ns">
    <!-- Generator: Sketch 3.4.1 (15681) - http://www.bohemiancoding.com/sketch -->
    <title>Group</title>
    <desc>Created with Sketch.</desc>
    <defs></defs>
    <g id="Home" stroke="none" stroke-width="1" fill="none" fill-rule="evenodd" sketch:type="MSPage">
        <g sketch:type="MSArtboardGroup" transform="translate(-460.000000, -647.000000)" stroke-linecap="round" id="Boxes" stroke="#B5E0FC" stroke-linejoin="round">
            <g sketch:type="MSLayerGroup" transform="translate(161.000000, 629.000000)">
                <g id="Rectangle-84-+-Monday---Friday------+-Working-time:-2" transform="translate(278.000000, 0.000000)" sketch:type="MSShapeGroup">
                    <g id="Group" transform="translate(21.000000, 18.000000)">
                        <path d="M4.5,2.5 L0.5,2.5 L0.5,23.5 L23.5,23.5 L23.5,2.5 L19.5,2.5" id="Stroke-1351"></path>
                        <path d="M7.5,4.5 L4.5,4.5 L4.5,0.5 L7.5,0.5 L7.5,4.5 Z" id="Stroke-1352"></path>
                        <path d="M19.5,4.5 L16.5,4.5 L16.5,0.5 L19.5,0.5 L19.5,4.5 Z" id="Stroke-1353"></path>
                        <path d="M7.5,2 L16.5,2" id="Stroke-1354"></path>
                        <path d="M0.5,7 L23.5,7" id="Stroke-1355"></path>
                        <path d="M6,9.5 L6,21.5" id="Stroke-1356"></path>
                        <path d="M11,9.5 L11,21.5" id="Stroke-1357"></path>
                        <path d="M16,9.5 L16,21.5" id="Stroke-1358"></path>
                        <path d="M2.5,11 L21.5,11" id="Stroke-1359"></path>
                        <path d="M2.5,15 L21.5,15" id="Stroke-1360"></path>
                        <path d="M2.5,19 L21.5,19" id="Stroke-1361"></path>
                    </g>
                </g>
            </g>
        </g>
    </g>
</svg>