<?xml version="1.0" encoding="UTF-8" standalone="no"?>
<svg width="630px" height="568px" viewBox="0 0 630 568" version="1.1" xmlns="http://www.w3.org/2000/svg" xmlns:xlink="http://www.w3.org/1999/xlink" xmlns:sketch="http://www.bohemiancoding.com/sketch/ns">
    <!-- Generator: Sketch 3.4.1 (15681) - http://www.bohemiancoding.com/sketch -->
    <title>Shape Copy</title>
    <desc>Created with Sketch.</desc>
    <defs></defs>
    <g id="Home" stroke="none" stroke-width="1" fill="none" fill-rule="evenodd" sketch:type="MSPage">
        <g sketch:type="MSArtboardGroup" transform="translate(-284.000000, -2011.000000)" id="Shape-Copy" fill="#FFFFFF">
            <path d="M485.795751,2060.07526 C488.985341,2051.6888 496.50494,2043.23965 502.426278,2037.16001 C498.460521,2047.79901 491.081308,2054.98758 487.621056,2065.34782 C485.953757,2070.33932 488.997762,2074.93277 488.026615,2080.75994 C485.863633,2085.42358 483.699784,2090.08867 481.536801,2094.75231 C488.566783,2089.88589 495.599076,2085.01802 502.629058,2080.15131 C507.022616,2078.86733 511.417907,2077.58277 515.811465,2076.2985 C520.220333,2073.22965 521.631414,2066.91258 526.966077,2064.73948 C524.059569,2069.60591 520.949127,2074.27099 517.839839,2078.93463 C514.336258,2081.78279 508.719379,2081.27527 504.454363,2083.59885 C492.359513,2090.18861 456.130712,2114.8246 476.263665,2131.863 C488.437374,2142.16519 515.912566,2126.0884 523.112687,2117.05922 C529.150724,2109.48763 532.62253,2099.58956 539.945994,2093.33285 C548.260247,2088.06087 556.577099,2082.78716 564.891641,2077.51518 C558.199625,2083.53068 551.099739,2088.93958 544.002164,2094.34675 C536.486897,2100.89058 531.558948,2111.9568 526.357738,2120.70954 C535.07755,2117.87063 543.800251,2115.03114 552.520063,2112.19222 C556.778723,2107.93414 561.038539,2103.67461 565.2972,2099.41653 C562.091434,2105.34249 558.739215,2111.49578 553.12869,2115.03143 C543.298501,2121.22574 478.612962,2139.23817 493.299752,2159.23969 C498.69652,2166.58915 521.192347,2159.77062 529.196942,2158.22551 C537.984636,2157.34708 546.774641,2156.46808 555.562335,2155.58937 C560.429334,2152.00722 565.297778,2148.42362 570.164777,2144.84147 C580.953403,2137.71357 603.17308,2139.47764 612.754561,2146.26093 C604.074034,2146.63298 592.989326,2142.0846 581.724659,2144.23313 C571.102705,2146.2592 566.679394,2155.23783 557.995979,2159.23969 C550.492844,2160.59127 542.987399,2161.94371 535.484265,2163.29528 C546.840501,2170.1895 558.199914,2177.08574 569.556149,2183.97996 C573.81481,2185.94016 578.074626,2187.90065 582.333287,2189.86086 C562.311256,2191.28811 549.179688,2170.33018 531.833654,2167.35117 C523.519113,2168.77062 515.20226,2170.19037 506.888007,2171.60983 C500.666255,2172.87272 494.196661,2174.88059 492.894192,2180.7352 C487.908183,2203.1461 550.869518,2207.90535 554.548148,2231.83855 C552.520352,2229.27001 550.491978,2226.70089 548.463893,2224.13234 C546.084266,2222.20392 522.281926,2209.10845 519.259297,2210.74831 C523.922072,2216.20719 525.336619,2222.56615 528.588603,2227.98545 C531.427806,2230.95926 534.267587,2233.93422 537.106502,2236.90833 C521.029141,2229.17006 518.573254,2204.2611 498.775668,2204.66464 C501.892754,2220.35637 499.398449,2235.82481 497.558701,2253.7399 C497.288328,2261.03939 497.017955,2268.34148 496.747583,2275.64125 C495.19265,2266.71924 494.043277,2257.9974 492.894192,2249.27846 C491.290154,2236.54696 502.179014,2206.80046 489.243582,2200.40597 C462.317512,2187.09531 444.736058,2239.42805 437.729762,2254.95658 C421.912086,2290.01405 350.709869,2309.989 357.011635,2361.42136 C358.772525,2375.79358 365.310578,2384.17947 374.656061,2390.82585 C402.975591,2410.96718 428.478159,2402.83 471.599156,2407.45464 C482.414646,2407.65742 493.233314,2407.8602 504.048515,2408.06298 C515.657792,2406.71083 527.469271,2402.26614 540.554333,2404.41295 C564.741723,2408.38101 578.614216,2426.49773 587.200575,2446.18757 C591.093828,2455.11565 592.581456,2463.40304 599.572153,2469.10282 C620.694162,2486.32493 641.83928,2459.43555 661.429177,2453.69099 C670.824921,2452.20394 680.223553,2450.7166 689.619586,2449.22955 C697.628225,2444.97291 738.931138,2389.63488 744.175389,2379.46961 C746.715622,2374.54571 746.408853,2366.82824 748.231559,2361.0158 C753.098558,2351.01258 757.967002,2341.00619 762.834001,2331.00297 C764.455372,2328.11149 785.928057,2280.74627 788.590767,2296.93398 C777.775276,2317.21107 766.956609,2337.49423 756.141119,2357.77104 C753.922675,2362.92343 754.54979,2370.42397 752.084949,2376.22514 C775.511193,2375.82767 777.357585,2348.67657 804.612666,2351.89014 C851.460244,2357.4143 872.497617,2381.80735 894.863168,2411.51052 C898.337574,2416.12477 916.434643,2435.94431 913.72456,2440.71223 C907.073851,2442.67763 879.408589,2399.91627 873.568132,2392.85393 C862.251181,2379.1692 821.01355,2351.62381 792.444157,2359.39356 C783.615156,2361.79457 779.633801,2372.22212 771.149121,2376.22514 C751.796089,2385.35571 744.76784,2385.63475 733.832184,2403.60183 C746.100928,2397.39308 757.44041,2405.02244 771.757459,2402.18208 C780.69045,2400.40993 787.589867,2392.91806 791.633038,2392.04252 C794.971969,2391.31951 795.570776,2394.17835 795.486429,2396.50396 C788.720753,2403.78497 773.664801,2412.21996 758.372272,2409.48273 C753.130044,2408.54422 748.149234,2404.60533 742.552863,2406.23796 C726.929879,2410.79588 707.45206,2436.28834 699.151672,2449.22955 C711.998714,2449.35405 757.870811,2423.06694 763.036781,2428.3421 C763.104374,2429.22081 763.171967,2430.09981 763.23956,2430.97823 C761.225341,2433.34082 758.071569,2432.71341 754.924441,2434.02021 C750.598187,2436.72394 746.270778,2439.42825 741.944524,2442.13169 C737.145118,2443.41596 732.344267,2444.70052 727.54515,2445.98479 C732.688877,2455.76818 733.230201,2462.34177 746.609033,2464.03304 C756.533679,2462.49659 755.09689,2448.5698 770.743561,2457.5438 C773.191937,2458.94824 774.881767,2458.94131 775.20529,2462.61358 C774.596952,2463.35711 773.988324,2464.10092 773.379985,2464.84445 C769.2568,2463.56018 765.13217,2462.27562 761.008696,2460.99135 C757.89912,2463.89757 754.788966,2466.80494 751.67939,2469.71116 C743.04248,2473.23063 729.201472,2464.1145 725.719845,2459.57189 C724.367692,2455.98945 723.015539,2452.40614 721.663675,2448.82399 C717.540201,2450.64872 713.415571,2452.47431 709.292097,2454.29933 C703.343606,2454.97526 697.393382,2455.65119 691.444892,2456.32713 C696.592085,2460.27584 702.914938,2462.96657 706.250114,2468.69726 C709.474945,2474.23904 710.074329,2481.24793 713.956894,2485.93439 C716.417402,2488.90474 723.302088,2489.52348 724.300099,2492.42392 C718.232309,2512.87779 701.476127,2473.75057 700.165859,2471.53646 C694.960894,2467.07531 690.160043,2463.62719 685.360637,2460.18023 C672.180829,2454.23867 648.951876,2465.23065 641.148039,2471.1309 C668.604166,2471.86547 664.11384,2514.53787 681.507247,2529.93988 C683.154903,2531.3992 686.674083,2535.45219 682.724213,2537.24052 C668.197452,2543.81699 658.5426,2486.66001 650.071786,2480.25628 C639.109266,2471.96918 625.952856,2483.81041 614.174307,2482.28436 C605.86872,2481.20807 601.244363,2477.05369 595.515983,2473.56426 C601.720981,2508.54056 599.06636,2554.92741 583.347185,2578.20403 C582.333287,2578.33921 581.3191,2578.4744 580.305202,2578.60958 C577.286328,2576.16583 590.060865,2540.43242 591.459525,2529.7371 C596.455933,2491.53336 587.167067,2452.00983 571.178675,2430.57267 C564.911861,2422.17032 554.545259,2413.72868 542.785197,2411.10496 C528.311586,2407.8758 496.062696,2413.95745 480.928462,2415.97196 C472.411141,2415.76918 463.891509,2415.5664 455.374188,2415.36362 C419.099747,2411.36869 387.938703,2410.61506 366.543721,2392.65115 C308.195767,2343.66081 416.677368,2278.63326 423.938727,2236.09692 C422.789643,2229.33818 421.640269,2222.57712 420.490896,2215.81809 C418.236634,2206.21697 415.51904,2196.7311 408.930725,2191.48309 C388.826658,2175.46957 364.317767,2223.84291 354.172143,2232.04133 C350.272824,2235.19221 329.687805,2244.47674 324.156428,2244.0059 C331.929935,2240.15338 339.705753,2236.29941 347.479549,2232.44689 C355.332493,2227.75262 362.34341,2216.54053 366.340653,2208.11189 C356.5873,2212.62099 344.773799,2213.80416 336.324938,2219.26534 C335.378633,2219.87368 334.432039,2220.48231 333.485735,2221.09065 C334.856663,2210.65183 356.43276,2208.4669 364.718416,2203.44796 C367.692517,2200.27108 370.667773,2197.09333 373.641874,2193.91674 C357.190728,2190.08357 350.325397,2200.76936 341.192226,2203.65074 C335.717177,2203.31277 330.240105,2202.97452 324.764767,2202.63655 C320.708886,2202.23128 316.65185,2201.82543 312.596258,2201.41987 C321.248476,2201.08191 329.903584,2200.74394 338.555802,2200.40597 C343.355209,2197.16179 348.156059,2193.91645 352.955465,2190.67198 C362.553989,2189.3204 372.15569,2187.96796 381.754214,2186.61638 C386.823993,2182.76357 391.895216,2178.90989 396.964995,2175.05708 C386.764199,2164.08474 379.760792,2174.39963 364.718416,2172.01539 C351.833823,2169.97315 343.527658,2162.561 332.674327,2158.42828 C326.347141,2156.01919 320.785145,2158.89133 313.204596,2157.81995 C303.407048,2156.43544 288.460285,2147.05905 284,2139.97447 C293.666406,2144.63812 303.335411,2149.3032 313.001817,2153.96713 C318.844007,2155.99146 326.211377,2152.03062 332.674327,2153.56157 C352.183632,2158.18275 359.547247,2171.79499 383.17396,2161.87583 C387.231863,2160.17213 391.067344,2159.96502 391.894927,2154.98103 C377.564302,2152.61527 363.229632,2150.24893 348.899007,2147.88346 C335.447382,2142.61119 321.991713,2137.33776 308.540088,2132.06578 C316.921934,2133.82291 325.1036,2136.18925 333.282666,2138.55502 C345.982967,2142.38241 360.80812,2145.14738 376.684146,2146.05815 C369.382925,2139.95454 366.337764,2132.0317 356.808856,2127.80712 C348.561907,2125.50895 340.312648,2123.2102 332.065988,2120.91232 C336.527429,2121.25029 340.990024,2121.58826 345.451465,2121.92622 C355.933033,2123.1793 362.215445,2124.67357 368.774586,2129.42936 C379.086882,2136.90678 385.153805,2151.14757 406.091522,2148.89735 C411.845899,2140.298 405.746334,2129.0368 400.007267,2124.1568 C392.977285,2121.92651 385.944992,2119.69536 378.91501,2117.46478 C362.781322,2110.90506 346.295802,2103.29274 333.891294,2092.92729 C340.650903,2096.17148 347.209754,2099.6196 353.766584,2103.06685 C367.083022,2107.46012 380.403505,2111.85484 393.720233,2116.2481 C390.775595,2110.79183 389.342562,2104.64287 384.796486,2100.83599 C380.199859,2097.32143 375.602077,2093.80572 371.00545,2090.29087 C365.124553,2081.03118 359.241922,2071.7686 353.361025,2062.50862 C362.621582,2075.4403 373.576303,2088.48867 387.432909,2096.57733 C386.628146,2084.08963 380.045319,2078.24108 373.844654,2071.22872 C373.033535,2070.28242 372.222128,2069.33582 371.411009,2068.38952 C398.71953,2070.5967 385.213021,2119.05467 412.986895,2122.129 C419.513683,2122.85144 424.903808,2121.51084 428.603524,2118.88424 C423.060593,2111.58475 417.515928,2104.28266 411.972997,2096.98289 C406.227286,2087.92597 400.479842,2078.86617 394.734131,2069.80926 C384.779443,2057.93568 368.939525,2051.57759 355.18633,2043.44647 C385.788719,2050.59257 399.633771,2069.56778 415.218048,2092.11618 C420.693387,2098.87492 426.170169,2105.63597 431.645507,2112.395 C441.831572,2083.94606 414.867084,2069.80609 402.84647,2055.00549 C397.642083,2048.59742 394.165654,2040.84009 390.677961,2032.69857 C388.920537,2028.3729 387.162536,2024.04578 385.404824,2019.7201 C391.565627,2033.33147 402.509371,2053.6282 415.015269,2060.27804 C409.334262,2048.85277 415.862784,2036.45635 417.246133,2024.58681 C417.17854,2020.32873 417.110947,2016.0692 417.043354,2011.81112 C418.260031,2016.47476 419.071439,2020.93707 419.882557,2025.39822 C418.7976,2033.8257 414.884415,2043.70789 416.840285,2053.18047 C419.654936,2066.81032 432.891071,2078.37194 438.946729,2090.29087 C441.0037,2094.33953 442.719527,2099.58522 442.39456,2105.70299 C442.124187,2107.73078 441.853525,2109.75887 441.583153,2111.78666 C442.584341,2114.42395 449.627321,2118.07485 453.143323,2118.2759 C461.72506,2107.8469 474.514041,2097.17584 479.914276,2084.00441 C482.527879,2077.62957 480.876756,2045.23625 479.305937,2033.71247 C478.327568,2026.53633 471.786048,2013.48535 472.004715,2011 C485.467317,2021.69359 478.709441,2042.38693 485.795751,2060.07526 Z" sketch:type="MSShapeGroup"></path>
        </g>
    </g>
</svg>