<?xml version="1.0" encoding="UTF-8" standalone="no"?>
<svg width="506px" height="226px" viewBox="0 0 506 226" version="1.1" xmlns="http://www.w3.org/2000/svg" xmlns:xlink="http://www.w3.org/1999/xlink" xmlns:sketch="http://www.bohemiancoding.com/sketch/ns">
    <!-- Generator: Sketch 3.4.1 (15681) - http://www.bohemiancoding.com/sketch -->
    <title>logo</title>
    <desc>Created with Sketch.</desc>
    <defs>
        <polygon id="path-1" points="118 0.511123608 220.190998 55.9353466 220.190998 166.783793 118 222.208016 15.8090024 166.783793 15.8090024 55.9353466 "></polygon>
        <polygon id="path-3" points="117 -7.8828125 219.190998 47.5414105 219.190998 158.389857 117 213.81408 14.8090024 158.389857 14.8090024 47.5414105 "></polygon>
    </defs>
    <g id="Logo" stroke="none" stroke-width="1" fill="none" fill-rule="evenodd" sketch:type="MSPage">
        <g sketch:type="MSArtboardGroup" transform="translate(-85.000000, -356.000000)" id="logo">
            <g sketch:type="MSLayerGroup" transform="translate(71.000000, 362.000000)">
                <path d="M259,147.65 L278.25,147.65 L278.25,123.34 L291.67,123.34 C306.96,123.34 317.3,111.9 317.3,96.06 C317.3,80.22 306.96,69 291.67,69 L259,69 L259,147.65 Z M278.25,106.84 L278.25,85.5 L288.04,85.5 C294.42,85.5 297.72,89.79 297.72,96.06 C297.72,102.33 294.42,106.84 287.71,106.84 L278.25,106.84 Z M328.74,147.65 L347.99,147.65 L347.99,69 L328.74,69 L328.74,147.65 Z M366.47,147.65 L385.72,147.65 L385.72,111.02 C385.72,106.07 384.84,97.6 384.84,97.6 L385.06,97.6 C385.06,97.6 388.58,105.85 391.66,111.02 L413.55,147.65 L432.91,147.65 L432.91,69 L413.66,69 L413.66,105.74 C413.66,110.69 414.54,119.16 414.54,119.16 L414.32,119.16 C414.32,119.16 410.8,110.91 407.72,105.74 L385.94,69 L366.47,69 L366.47,147.65 Z M451.39,147.65 L479.33,147.65 C504.08,147.65 519.92,132.91 519.92,108.16 C519.92,83.41 504.08,69 479.33,69 L451.39,69 L451.39,147.65 Z M470.64,131.15 L470.64,85.5 L478.56,85.5 C491.54,85.5 500.01,93.2 500.01,108.16 C500.01,123.23 491.87,131.15 478.56,131.15 L470.64,131.15 Z" id="PIND" fill="#3F3F3F" sketch:type="MSShapeGroup"></path>
                <g id="Oval-1-+-Shape-Copy">
                    <mask id="mask-2" sketch:name="Mask Copy" fill="white">
                        <use xlink:href="#path-1"></use>
                    </mask>
                    <use id="Mask-Copy" fill="#0064B2" sketch:type="MSShapeGroup" xlink:href="#path-1"></use>
                    <mask id="mask-4" sketch:name="Mask" fill="white">
                        <use xlink:href="#path-3"></use>
                    </mask>
                    <use id="Mask" fill="#0078D0" sketch:type="MSShapeGroup" xlink:href="#path-3"></use>
                    <path d="M186.224175,-46.2823257 C189.177897,-54.0635746 196.141425,-61.9029824 201.624883,-67.5438719 C197.952392,-57.6726503 191.118868,-51.0028553 187.9145,-41.3902672 C186.370497,-36.7589863 189.189399,-32.4970285 188.290069,-27.0903832 C186.287038,-22.7632981 184.283204,-18.4348729 182.280173,-14.1077878 C188.790291,-18.6230187 195.302549,-23.1395897 201.812667,-27.6550886 C205.881324,-28.8464106 209.951585,-30.0382686 214.020242,-31.2298586 C218.103076,-34.0772387 219.409807,-39.9384357 224.349975,-41.9547046 C221.658402,-37.4394737 218.777975,-33.1110485 215.898618,-28.7839633 C212.654126,-26.1413459 207.452612,-26.6122464 203.502992,-24.4563422 C192.30255,-18.3421401 158.752852,4.51596514 177.396983,20.3247676 C188.670452,29.8834849 214.113866,14.9669009 220.781541,6.58932101 C226.373068,-0.435860488 229.588136,-9.61962629 236.370033,-15.4248083 C244.069451,-20.3163308 251.771276,-25.2094614 259.470961,-30.1009839 C253.273816,-24.5195935 246.698964,-19.5010324 240.126251,-14.4840794 C233.166735,-8.41249149 228.603206,1.8551227 223.786623,9.97621322 C231.861609,7.34217218 239.939269,4.70759511 248.014255,2.07355407 C251.95799,-1.87723948 255.902795,-5.8293731 259.846529,-9.78016664 C256.877828,-4.28186058 253.773504,1.42737245 248.577875,4.70786312 C239.474624,10.4551541 179.572551,27.1676996 193.173259,45.7257892 C198.170939,52.5448679 219.003209,46.2183988 226.415868,44.7847922 C234.553716,43.9697618 242.693704,43.1541954 250.831553,42.3388969 C255.33864,39.015256 259.847064,35.690275 264.354151,32.3666341 C274.344963,25.753122 294.921505,27.3898832 303.79444,33.6836546 C295.755834,34.0288566 285.490835,29.808709 275.059185,31.8021968 C265.22272,33.6820466 261.126511,42.012724 253.08523,45.7257892 C246.136949,46.9798264 239.186528,48.2346677 232.238247,49.4887049 C242.754694,55.8853937 253.274084,62.2839586 263.790531,68.6806474 C267.734266,70.49939 271.679071,72.3184007 275.622805,74.1371433 C257.081394,75.4614002 244.920899,56.0159165 228.857597,53.2518887 C221.157912,54.5689092 213.456087,55.8861978 205.756669,57.2032183 C199.995013,58.3749752 194.003843,60.2379402 192.797691,65.6700468 C188.180394,86.4636406 246.485767,90.8794383 249.892364,113.085466 C248.014523,110.702286 246.136146,108.31857 244.258037,105.93539 C242.054382,104.146129 220.012215,91.9957164 217.213107,93.5172316 C221.531073,98.5821591 222.841014,104.482218 225.852516,109.510428 C228.481761,112.269631 231.111542,115.029907 233.74052,117.789378 C218.852072,110.609553 216.577798,87.4981744 198.244233,87.8725899 C201.130813,102.431911 198.820961,116.784058 197.117261,133.406283 C196.866882,140.178995 196.616503,146.95412 196.366124,153.7271 C194.926178,145.448953 193.861801,137.35654 192.797691,129.266808 C191.31227,117.454093 201.395904,89.854285 189.417041,83.9212603 C164.482141,71.5711778 148.200828,120.127264 141.712645,134.535158 C127.064679,167.06267 61.1278325,185.596102 66.963586,233.316789 C68.5942586,246.651823 74.6488262,254.432535 83.3032145,260.599268 C109.528528,279.287077 133.145194,271.737124 173.077413,276.028027 C183.093102,276.216173 193.111734,276.404319 203.127156,276.592464 C213.877933,275.337891 224.815958,271.213961 236.933386,273.20584 C259.332129,276.887548 272.178758,293.696846 280.13016,311.965749 C283.735508,320.249524 285.113127,327.938844 291.586865,333.227295 C311.146912,349.206554 330.728358,324.257672 348.869591,318.927679 C357.570524,317.547943 366.274132,316.167939 374.975332,314.788204 C382.391736,310.83875 420.640318,259.494247 425.496758,250.062568 C427.849143,245.494002 427.565059,238.333474 429.252976,232.940497 C433.760063,223.659174 438.268488,214.374903 442.775575,205.093581 C444.277046,202.410761 464.161835,158.463711 466.627639,173.483212 C456.61195,192.296987 446.593318,211.11639 436.577628,229.929897 C434.523237,234.710461 435.103977,241.669711 432.82141,247.052236 C454.515294,246.683448 456.225146,221.491746 481.464727,224.473401 C524.847948,229.598899 544.329617,252.231605 565.041246,279.791211 C568.258721,284.072466 585.01752,302.461706 582.507846,306.885544 C576.348954,308.709111 550.729526,269.033667 545.320968,262.480994 C534.8409,249.783834 496.652773,224.226292 470.196073,231.435331 C462.019973,233.663063 458.333037,243.338098 450.475795,247.052236 C432.553911,255.523888 426.045398,255.78279 415.918429,272.453257 C427.279905,266.692565 437.780838,273.77135 451.039147,271.135969 C459.311547,269.491703 465.700756,262.540493 469.444937,261.728143 C472.536955,261.057304 473.09148,263.709838 473.01337,265.867618 C466.748014,272.623178 452.805442,280.449453 438.643789,277.909753 C433.789221,277.038976 429.176739,273.384337 423.994218,274.899152 C409.526546,279.128144 391.489102,302.780911 383.802525,314.788204 C395.699533,314.903718 438.179411,290.513645 442.963359,295.408115 C443.025954,296.223414 443.088548,297.03898 443.151143,297.854011 C441.285874,300.046097 438.365322,299.46397 435.450923,300.676465 C431.444594,303.185076 427.437194,305.694222 423.430865,308.202565 C418.986373,309.394155 414.540543,310.586013 410.096318,311.777603 C414.859669,320.854967 415.360962,326.954161 427.750436,328.523382 C436.941159,327.097816 435.61062,314.17606 450.100227,322.502449 C452.367546,323.805533 453.932414,323.7991 454.232013,327.206362 C453.668661,327.89623 453.105041,328.586365 452.541688,329.276233 C448.72341,328.084643 444.903795,326.892785 441.08525,325.701195 C438.205626,328.397684 435.325466,331.095244 432.445842,333.791732 C424.447628,337.057214 411.630156,328.598962 408.405993,324.384175 C407.153831,321.060266 405.90167,317.735553 404.649775,314.411912 C400.83123,316.104956 397.011615,317.798804 393.19307,319.492116 C387.684467,320.119269 382.17426,320.746422 376.665657,321.373574 C381.432218,325.037325 387.287499,327.533875 390.37604,332.851003 C393.362396,337.992851 393.917456,344.495941 397.512908,348.844199 C399.791462,351.600187 406.167028,352.174273 407.091237,354.865401 C401.472157,373.8432 385.955087,337.539639 384.741713,335.485312 C379.921652,331.346105 375.475822,328.146823 371.03133,324.948612 C358.826163,319.435833 337.31498,329.634568 330.088233,335.109021 C355.513993,335.79058 351.355724,375.383476 367.462896,389.67398 C368.988709,391.027986 372.247647,394.78849 368.589869,396.447764 C355.137355,402.549638 346.196475,349.51745 338.352073,343.575849 C328.200227,335.886797 316.016727,346.873493 305.109196,345.457575 C297.417804,344.458955 293.135416,340.604379 287.830647,337.36677 C293.576789,369.818971 291.118475,412.858258 276.561726,434.455089 C275.622805,434.58052 274.683617,434.705951 273.744696,434.831381 C270.949066,432.563983 282.778933,399.409318 284.074162,389.485834 C288.701088,354.039114 280.09913,317.367838 265.293072,297.477719 C259.489686,289.681729 249.889689,281.84929 238.999279,279.414919 C225.595984,276.418791 195.731885,282.061557 181.716821,283.930686 C173.829352,283.74254 165.939742,283.554395 158.052273,283.366249 C124.46031,279.659616 95.6036112,278.960368 75.7907785,262.292848 C21.7576285,216.837952 122.217066,156.503189 128.94145,117.036527 C127.87734,110.765537 126.812962,104.492403 125.748585,98.2211443 C123.661024,89.3128968 121.144395,80.5115869 115.043283,75.6423096 C96.4259025,60.7844206 73.7294329,105.66684 64.334073,113.273611 C60.7231068,116.197108 41.6603407,124.811612 36.5380065,124.374749 C43.7366663,120.800247 50.9374662,117.224405 58.1363936,113.649903 C65.4086156,109.294408 71.9010787,98.8914472 75.6027269,91.0710683 C66.5706303,95.254766 55.6307324,96.3525511 47.8066604,101.419623 C46.9303344,101.98406 46.0537408,102.548765 45.1774148,103.113203 C46.446964,93.4277149 66.4275185,91.4004575 74.1004537,86.7437152 C76.8546212,83.7960978 79.6098587,80.8476764 82.3640262,77.9003271 C67.1294353,74.3437821 60.7717916,84.2584219 52.3140149,86.931861 C47.2438429,86.6182847 42.1717984,86.3044403 37.1013589,85.990864 C33.3454084,85.6148404 29.588388,85.2382809 25.832705,84.8619893 C33.8450962,84.548413 41.8601623,84.2348367 49.8725535,83.9212603 C54.3170459,80.9111957 58.7628757,77.9000591 63.2073681,74.8897265 C72.0960853,73.6356892 80.987745,72.3808479 89.8764622,71.1268107 C94.5713334,67.5520407 99.2675421,63.9764667 103.962413,60.4016967 C94.5159611,50.221187 88.030453,59.791697 74.1004537,57.5795099 C62.1686703,55.6846513 54.4767426,48.8074135 44.4260107,44.972938 C38.5667173,42.7377017 33.4160281,45.4025643 26.3960574,44.4085006 C17.3230336,43.1239098 3.48157632,34.4241772 -0.648872457,27.8508672 C8.30270696,32.1779523 17.2566939,36.5063775 26.2082733,40.8337306 C31.6184363,42.7119724 38.4409928,39.0369652 44.4260107,40.4574391 C62.4926113,44.7451261 69.3116904,57.3750152 91.1912187,48.1716844 C94.9490417,46.5909382 98.5008906,46.3987722 99.2672746,41.7744596 C85.9963923,39.5794254 72.7217649,37.3838551 59.4508826,35.189089 C46.9939991,30.2972985 34.5333706,25.4044359 22.076487,20.5129134 C29.8384993,22.1432422 37.415135,24.3388125 44.9893632,26.5338467 C56.7504823,30.0850314 70.4793226,32.6504609 85.1813235,33.4955089 C78.4200241,27.8323742 75.6000519,20.4812878 66.7758019,16.5615838 C59.1387115,14.4292649 51.4994811,12.2964099 43.8626583,10.164359 C47.994177,10.4779353 52.1267658,10.7915116 56.2582846,11.1050879 C65.9647456,12.2677324 71.7825767,13.6541686 77.8566717,18.0667501 C87.4063784,25.0045591 93.0246554,38.2176465 112.414038,36.1298179 C117.742881,28.1510428 112.094376,17.7025192 106.779711,13.1746916 C100.269593,11.105356 93.7573346,9.03521626 87.2472166,6.96561259 C72.3066068,0.879283934 57.0401835,-6.18368753 45.5529831,-15.8010999 C51.8127222,-12.7910353 57.8865497,-9.59175284 63.9585047,-6.39327443 C76.2901988,-2.31705036 88.6256378,1.76051378 100.957599,5.83673785 C98.2307168,0.774222468 96.9036553,-4.93099036 92.6937594,-8.46314612 C88.4370512,-11.7240718 84.179273,-14.9860695 79.9225648,-18.2472632 C74.476557,-26.8387181 69.0289442,-35.4328533 63.5829364,-44.0245763 C72.15868,-32.026128 82.303304,-19.9194022 95.1352208,-12.4144757 C94.3899692,-24.0009865 88.2939393,-29.4274648 82.5518104,-35.9337713 C81.8006738,-36.811785 81.0492697,-37.6900667 80.2981331,-38.5680804 C105.587201,-36.5201858 93.0794927,8.44076133 118.799501,11.2932337 C124.843636,11.9635366 129.835164,10.7196839 133.261288,8.28263311 C128.128254,1.50992074 122.993615,-5.26520374 117.86058,-12.0381841 C112.539762,-20.4414933 107.217339,-28.8474827 101.89652,-37.2507918 C92.677977,-48.267505 78.0094135,-54.1667599 65.2732612,-61.7110844 C93.6126177,-55.0806875 106.433835,-37.4748515 120.865662,-16.553683 C125.936101,-10.2826928 131.007878,-4.00955842 136.078318,2.26169986 C145.511127,-24.1341894 120.540651,-37.25374 109.408956,-50.9862385 C104.58943,-56.9318598 101.370083,-64.1293743 98.1403022,-71.6833473 C96.5128396,-75.6968561 94.884842,-79.711705 93.2571118,-83.7252138 C98.962326,-71.0961287 109.096785,-52.2641289 120.677878,-46.0941799 C115.416979,-56.6949355 121.462719,-68.1967539 122.743771,-79.2097148 C122.681176,-83.1605084 122.618581,-87.112642 122.555987,-91.0634355 C123.682691,-86.7363504 124.434096,-82.596071 125.185232,-78.4568637 C124.180507,-70.6375569 120.556701,-61.4685318 122.367935,-52.6795506 C124.974443,-40.0333126 137.231772,-29.3060545 142.839617,-18.2472632 C144.744476,-14.4907797 146.333419,-9.6236465 146.032483,-3.94737918 C145.782104,-2.0659213 145.531457,-0.184195395 145.281079,1.69726249 C146.208229,4.1442298 152.730385,7.53165804 155.98638,7.71819574 C163.933501,-1.95817969 175.776743,-11.8591508 180.777633,-24.0800506 C183.197962,-29.9948503 181.668939,-60.05047 180.21428,-70.7426183 C179.308262,-77.4008887 173.250484,-89.5100267 173.452981,-91.8160187 C185.920029,-81.8941425 179.661895,-62.6941596 186.224175,-46.2823257 Z" id="Shape-Copy" fill="#F7C027" sketch:type="MSShapeGroup" mask="url(#mask-4)">
                        <g transform="translate(291.057023, 171.507681) rotate(-19.000000) translate(-291.057023, -171.507681) "></g>
                    </path>
                    <path d="M118.5,122 C127.060414,122 129,115.060414 129,106.5 C129,97.9395864 127.060414,91 118.5,91 C109.939586,91 104,97.9395864 104,106.5 C104,115.060414 109.939586,122 118.5,122 Z" id="Oval-1" fill="#0078D0" sketch:type="MSShapeGroup" mask="url(#mask-4)"></path>
                </g>
            </g>
        </g>
    </g>
</svg>